<svg viewBox="0 0 250 282.78887724227474" preserveAspectRatio="xMidYMid meet" class="css-8aabad" id="cfeggcfg"><defs id="SvgjsDefs1271"></defs><g id="SvgjsG1272" featurekey="symbolGroupContainer" transform="matrix(1.6799999999999997,0,0,1.6799999999999997,41,0)" fill="#cccccc"><circle fill="#cccccc" xmlns="http://www.w3.org/2000/svg" cx="50" cy="50" r="50"></circle></g><g id="SvgjsG1273" featurekey="DUScZC-0" transform="matrix(1.3134777779425681,0,0,1.3134777779425681,59.326270186884386,18.32626893425436)" fill="#111"><g xmlns="http://www.w3.org/2000/svg"><path fill="#111" d="M18.964,30.683c0.188,0,0.365,0.073,0.498,0.206c0.19,0.19,0.254,0.467,0.167,0.724l-0.111,0.329   l-0.329,0.111c-0.074,0.025-0.15,0.037-0.229,0.037c-0.188,0-0.364-0.073-0.496-0.205c-0.275-0.275-0.275-0.722,0-0.997   C18.599,30.757,18.776,30.683,18.964,30.683 M55.405,63.872l0.311,0.154c0.243,0.121,0.394,0.362,0.394,0.631   c0,0.389-0.316,0.705-0.705,0.705c-0.389,0-0.705-0.316-0.705-0.705c0-0.268,0.151-0.51,0.394-0.631L55.405,63.872 M18.964,29.583   c-0.462,0-0.924,0.176-1.276,0.529c-0.705,0.705-0.705,1.848,0,2.552c0.352,0.352,0.812,0.527,1.273,0.527   c0.196,0,0.392-0.032,0.579-0.095l11.666,11.666h17.1l6.298,6.298v11.981c-0.595,0.295-1.005,0.907-1.005,1.616   c0,0.997,0.808,1.805,1.805,1.805c0.997,0,1.805-0.808,1.805-1.805c0-0.709-0.41-1.321-1.005-1.616V50.397l-7.235-7.235h-17.1   L20.672,31.965c0.212-0.629,0.069-1.352-0.432-1.853C19.888,29.76,19.426,29.583,18.964,29.583L18.964,29.583z"></path><path fill="#111" d="M35.138,15.362c0.389,0,0.705,0.316,0.705,0.705c0,0.268-0.151,0.51-0.394,0.63l-0.311,0.154l-0.311-0.154   c-0.243-0.121-0.394-0.362-0.394-0.63C34.433,15.678,34.75,15.362,35.138,15.362 M60.538,69.472l0.311,0.154   c0.243,0.121,0.394,0.362,0.394,0.63c0,0.389-0.316,0.705-0.705,0.705c-0.389,0-0.705-0.316-0.705-0.705   c0-0.268,0.151-0.51,0.394-0.63L60.538,69.472 M35.138,14.262c-0.997,0-1.805,0.808-1.805,1.805c0,0.709,0.41,1.321,1.005,1.616   v14.92l6.077,5.86h10.592l8.731,8.731v21.448c-0.595,0.295-1.005,0.907-1.005,1.616c0,0.997,0.808,1.805,1.805,1.805   s1.805-0.808,1.805-1.805c0-0.709-0.41-1.321-1.005-1.616V46.531l-9.669-9.669H41.061l-5.123-4.94v-14.24   c0.595-0.295,1.005-0.907,1.005-1.616C36.943,15.07,36.135,14.262,35.138,14.262L35.138,14.262z"></path><path fill="#111" d="M80.862,31.033c0.188,0,0.365,0.073,0.498,0.206s0.206,0.31,0.206,0.498s-0.073,0.365-0.206,0.498   c-0.132,0.132-0.308,0.205-0.496,0.205c-0.078,0-0.155-0.013-0.229-0.037l-0.329-0.111l-0.111-0.329   c-0.086-0.257-0.022-0.534,0.167-0.724C80.497,31.107,80.674,31.033,80.862,31.033 M65.671,74.672l0.311,0.154   c0.243,0.121,0.394,0.362,0.394,0.63c0,0.389-0.316,0.705-0.705,0.705s-0.705-0.316-0.705-0.705c0-0.268,0.151-0.51,0.394-0.631   L65.671,74.672 M80.862,29.933c-0.462,0-0.924,0.176-1.276,0.529c-0.501,0.501-0.644,1.224-0.432,1.853l-8.516,8.516v10.8   l-5.767,5.767v16.444c-0.595,0.295-1.005,0.907-1.005,1.616c0,0.997,0.808,1.805,1.805,1.805c0.997,0,1.805-0.808,1.805-1.805   c0-0.709-0.41-1.321-1.005-1.616V58.06l5.767-5.767v-10.8l8.047-8.047c0.188,0.063,0.384,0.095,0.579,0.095   c0.461,0,0.922-0.175,1.273-0.527c0.705-0.705,0.705-1.848,0-2.552C81.786,30.11,81.324,29.933,80.862,29.933L80.862,29.933z"></path><path fill="#111" d="M24.014,23.2c0.188,0,0.365,0.073,0.498,0.206c0.19,0.19,0.254,0.467,0.167,0.724l-0.111,0.329L24.24,24.57   c-0.074,0.025-0.15,0.037-0.228,0.037c-0.188,0-0.364-0.073-0.496-0.205c-0.133-0.133-0.206-0.31-0.206-0.498   c0-0.188,0.073-0.365,0.206-0.498S23.826,23.2,24.014,23.2 M34.065,37.483c0.188,0,0.364,0.073,0.496,0.205   c0.133,0.133,0.206,0.31,0.206,0.498s-0.073,0.365-0.206,0.498s-0.31,0.206-0.498,0.206c-0.188,0-0.365-0.073-0.498-0.206   c-0.19-0.19-0.254-0.467-0.167-0.724l0.111-0.329l0.329-0.111C33.91,37.495,33.987,37.483,34.065,37.483 M24.014,22.1   c-0.462,0-0.924,0.176-1.276,0.529c-0.705,0.705-0.705,1.848,0,2.552c0.352,0.352,0.812,0.527,1.273,0.527   c0.196,0,0.392-0.032,0.579-0.095l2.747,2.747v4.233l5.016,5.016c-0.212,0.629-0.069,1.352,0.432,1.853   c0.352,0.352,0.814,0.529,1.276,0.529c0.462,0,0.924-0.176,1.276-0.529c0.705-0.705,0.705-1.848,0-2.552   c-0.352-0.352-0.812-0.527-1.273-0.527c-0.196,0-0.392,0.032-0.579,0.095l-4.547-4.547v-4.233l-3.216-3.216   c0.212-0.629,0.069-1.352-0.432-1.853C24.938,22.276,24.476,22.1,24.014,22.1L24.014,22.1z"></path><path fill="#111" d="M13.738,45.962c0.389,0,0.705,0.316,0.705,0.705c0,0.268-0.151,0.51-0.394,0.63l-0.311,0.154l-0.311-0.154   c-0.243-0.12-0.394-0.362-0.394-0.63C13.033,46.278,13.35,45.962,13.738,45.962 M19.665,59.083c0.188,0,0.364,0.073,0.496,0.205   c0.133,0.133,0.206,0.31,0.206,0.498c0,0.188-0.073,0.365-0.206,0.498s-0.31,0.206-0.498,0.206c-0.188,0-0.365-0.073-0.498-0.206   c-0.19-0.19-0.254-0.467-0.167-0.724l0.111-0.329l0.329-0.111C19.51,59.095,19.587,59.083,19.665,59.083 M13.738,44.862   c-0.997,0-1.805,0.808-1.805,1.805c0,0.709,0.41,1.321,1.005,1.616v5.911l5.016,5.016c-0.212,0.629-0.069,1.352,0.432,1.853   c0.352,0.352,0.814,0.529,1.276,0.529c0.462,0,0.924-0.176,1.276-0.529c0.705-0.705,0.705-1.848,0-2.552   c-0.352-0.352-0.812-0.527-1.273-0.527c-0.196,0-0.392,0.032-0.579,0.095l-4.547-4.547v-5.248c0.595-0.295,1.005-0.907,1.005-1.616   C15.543,45.67,14.735,44.862,13.738,44.862L13.738,44.862z"></path><path fill="#111" d="M69.538,18.962c0.389,0,0.705,0.316,0.705,0.705c0,0.268-0.151,0.51-0.394,0.63l-0.311,0.154l-0.311-0.154   c-0.243-0.12-0.394-0.362-0.394-0.63C68.833,19.278,69.15,18.962,69.538,18.962 M65.938,47.672l0.311,0.154   c0.243,0.12,0.394,0.362,0.394,0.63c0,0.389-0.316,0.705-0.705,0.705c-0.389,0-0.705-0.316-0.705-0.705   c0-0.268,0.151-0.51,0.394-0.63L65.938,47.672 M69.538,17.862c-0.997,0-1.805,0.808-1.805,1.805c0,0.709,0.41,1.321,1.005,1.616   v7.048l-3.6,3.6v14.911c-0.595,0.295-1.005,0.907-1.005,1.616c0,0.997,0.808,1.805,1.805,1.805s1.805-0.808,1.805-1.805   c0-0.709-0.41-1.321-1.005-1.616V32.593l3.6-3.6v-7.711c0.595-0.295,1.005-0.907,1.005-1.616   C71.343,18.67,70.535,17.862,69.538,17.862L69.538,17.862z"></path><path fill="#111" d="M76.738,24.362c0.389,0,0.705,0.316,0.705,0.705c0,0.268-0.151,0.51-0.394,0.63l-0.311,0.154l-0.311-0.154   c-0.243-0.121-0.394-0.362-0.394-0.63C76.033,24.678,76.35,24.362,76.738,24.362 M72.612,32.083c0.078,0,0.155,0.013,0.229,0.037   l0.329,0.111l0.111,0.329c0.086,0.257,0.022,0.534-0.167,0.724c-0.133,0.133-0.31,0.206-0.498,0.206   c-0.188,0-0.365-0.073-0.498-0.206c-0.275-0.275-0.275-0.722,0-0.997C72.248,32.155,72.424,32.083,72.612,32.083 M76.738,23.262   c-0.997,0-1.805,0.808-1.805,1.805c0,0.709,0.41,1.321,1.005,1.616v1.648l-2.747,2.747c-0.188-0.063-0.384-0.095-0.579-0.095   c-0.461,0-0.922,0.175-1.273,0.527c-0.705,0.705-0.705,1.848,0,2.552c0.352,0.352,0.814,0.529,1.276,0.529   c0.462,0,0.924-0.176,1.276-0.529c0.501-0.501,0.644-1.224,0.432-1.853l3.216-3.216v-2.311c0.595-0.295,1.005-0.907,1.005-1.616   C78.543,24.07,77.735,23.262,76.738,23.262L76.738,23.262z"></path><path fill="#111" d="M62.338,15.362c0.389,0,0.705,0.316,0.705,0.705c0,0.268-0.151,0.51-0.394,0.63l-0.311,0.154l-0.311-0.154   c-0.243-0.121-0.394-0.362-0.394-0.63C61.633,15.678,61.95,15.362,62.338,15.362 M44.343,29.757c0.268,0,0.51,0.151,0.63,0.394   l0.154,0.311l-0.154,0.311c-0.121,0.243-0.362,0.394-0.63,0.394c-0.389,0-0.705-0.316-0.705-0.705S43.954,29.757,44.343,29.757    M62.338,14.262c-0.997,0-1.805,0.808-1.805,1.805c0,0.709,0.41,1.321,1.005,1.616v3.448l-8.531,8.531h-7.048   c-0.295-0.595-0.907-1.005-1.616-1.005c-0.997,0-1.805,0.808-1.805,1.805s0.808,1.805,1.805,1.805c0.709,0,1.321-0.41,1.616-1.005   h7.711l9.469-9.469v-4.111c0.595-0.295,1.005-0.907,1.005-1.616C64.143,15.07,63.335,14.262,62.338,14.262L62.338,14.262z"></path><path fill="#111" d="M51.014,13.033c0.188,0,0.365,0.073,0.498,0.206c0.19,0.19,0.254,0.467,0.167,0.724l-0.111,0.329   l-0.329,0.111c-0.074,0.025-0.15,0.037-0.229,0.037c-0.188,0-0.364-0.073-0.496-0.205c-0.133-0.133-0.206-0.31-0.206-0.498   s0.073-0.365,0.206-0.498S50.826,13.033,51.014,13.033 M44.343,24.357c0.268,0,0.51,0.151,0.63,0.394l0.154,0.311l-0.154,0.311   c-0.121,0.243-0.362,0.394-0.63,0.394c-0.389,0-0.705-0.316-0.705-0.705S43.954,24.357,44.343,24.357 M51.014,11.933   c-0.462,0-0.924,0.176-1.276,0.529c-0.705,0.705-0.705,1.848,0,2.552c0.352,0.352,0.812,0.527,1.273,0.527   c0.196,0,0.392-0.032,0.579-0.095l4.216,4.216l-4.6,4.6h-5.248c-0.295-0.595-0.907-1.005-1.616-1.005   c-0.997,0-1.805,0.808-1.805,1.805s0.808,1.805,1.805,1.805c0.709,0,1.321-0.41,1.616-1.005h5.911l6.2-6.2l-5.347-5.347   c0.212-0.629,0.069-1.352-0.432-1.853C51.938,12.11,51.476,11.933,51.014,11.933L51.014,11.933z"></path><path fill="#111" d="M42.014,13.033c0.188,0,0.365,0.073,0.498,0.206c0.19,0.19,0.254,0.467,0.167,0.724l-0.111,0.329   l-0.329,0.111c-0.074,0.025-0.15,0.037-0.229,0.037c-0.188,0-0.364-0.073-0.496-0.205c-0.275-0.275-0.275-0.722,0-0.997   C41.649,13.107,41.826,13.033,42.014,13.033 M46.665,17.683c0.188,0,0.364,0.073,0.496,0.205c0.275,0.275,0.275,0.722,0,0.997   c-0.133,0.133-0.31,0.206-0.498,0.206s-0.365-0.073-0.498-0.206c-0.19-0.19-0.254-0.467-0.167-0.724l0.111-0.329l0.329-0.111   C46.51,17.695,46.587,17.683,46.665,17.683 M42.014,11.933c-0.462,0-0.924,0.176-1.276,0.529c-0.705,0.705-0.705,1.848,0,2.552   c0.352,0.352,0.812,0.527,1.273,0.527c0.196,0,0.392-0.032,0.579-0.095l2.363,2.363c-0.212,0.629-0.069,1.352,0.432,1.853   c0.352,0.352,0.814,0.529,1.276,0.529s0.924-0.176,1.276-0.529c0.705-0.705,0.705-1.848,0-2.552   c-0.352-0.352-0.812-0.527-1.273-0.527c-0.196,0-0.392,0.032-0.579,0.095l-2.363-2.363c0.212-0.629,0.069-1.352-0.432-1.853   C42.938,12.11,42.476,11.933,42.014,11.933L42.014,11.933z"></path><path fill="#111" d="M61.062,29.233c0.188,0,0.365,0.073,0.498,0.206c0.275,0.275,0.275,0.722,0,0.997   c-0.132,0.132-0.308,0.205-0.496,0.205c-0.078,0-0.155-0.013-0.229-0.037l-0.329-0.111l-0.111-0.329   c-0.086-0.257-0.022-0.534,0.167-0.724C60.697,29.307,60.874,29.233,61.062,29.233 M61.065,37.483c0.188,0,0.364,0.073,0.496,0.205   c0.275,0.275,0.275,0.722,0,0.997c-0.133,0.133-0.31,0.206-0.498,0.206c-0.188,0-0.365-0.073-0.498-0.206   c-0.19-0.19-0.254-0.467-0.167-0.724l0.111-0.329l0.329-0.111C60.91,37.495,60.987,37.483,61.065,37.483 M61.062,28.133   c-0.462,0-0.924,0.176-1.276,0.529c-0.501,0.501-0.644,1.224-0.432,1.853l-1.416,1.416v4.263l1.416,1.416   c-0.212,0.629-0.069,1.352,0.432,1.853c0.352,0.352,0.814,0.529,1.276,0.529s0.924-0.176,1.276-0.529   c0.705-0.705,0.705-1.848,0-2.552c-0.352-0.352-0.813-0.527-1.273-0.527c-0.196,0-0.392,0.032-0.579,0.095l-0.947-0.947v-2.937   l0.947-0.947c0.188,0.063,0.384,0.095,0.579,0.095c0.461,0,0.922-0.175,1.273-0.527c0.705-0.705,0.705-1.848,0-2.552   C61.986,28.31,61.524,28.133,61.062,28.133L61.062,28.133z"></path><path fill="#111" d="M16.814,38.233c0.188,0,0.365,0.073,0.498,0.206c0.19,0.19,0.254,0.467,0.167,0.724l-0.111,0.329   l-0.329,0.111c-0.074,0.025-0.15,0.037-0.229,0.037c-0.188,0-0.364-0.073-0.496-0.205c-0.133-0.133-0.206-0.31-0.206-0.498   s0.073-0.365,0.206-0.498S16.626,38.233,16.814,38.233 M44.333,49.557c0.389,0,0.705,0.316,0.705,0.705   c0,0.389-0.316,0.705-0.705,0.705c-0.268,0-0.51-0.151-0.63-0.394l-0.154-0.311l0.154-0.311   C43.823,49.708,44.065,49.557,44.333,49.557 M16.814,37.133c-0.462,0-0.924,0.176-1.276,0.529c-0.705,0.705-0.705,1.848,0,2.552   c0.352,0.352,0.812,0.527,1.273,0.527c0.196,0,0.392-0.032,0.579-0.095l10.416,10.416h14.911c0.295,0.595,0.907,1.005,1.616,1.005   c0.997,0,1.805-0.808,1.805-1.805s-0.808-1.805-1.805-1.805c-0.709,0-1.321,0.41-1.616,1.005H28.469l-9.947-9.947   c0.212-0.629,0.069-1.352-0.432-1.853C17.738,37.31,17.276,37.133,16.814,37.133L16.814,37.133z"></path><path fill="#111" d="M84.462,38.233c0.188,0,0.365,0.073,0.498,0.206c0.275,0.275,0.275,0.722,0,0.997   c-0.132,0.132-0.308,0.205-0.496,0.205c-0.078,0-0.155-0.013-0.229-0.037l-0.329-0.111l-0.111-0.329   c-0.086-0.257-0.022-0.534,0.167-0.724C84.097,38.307,84.274,38.233,84.462,38.233 M77.171,49.472l0.311,0.154   c0.243,0.121,0.394,0.362,0.394,0.631c0,0.389-0.316,0.705-0.705,0.705s-0.705-0.316-0.705-0.705c0-0.268,0.151-0.51,0.394-0.631   L77.171,49.472 M84.462,37.133c-0.462,0-0.924,0.176-1.276,0.529c-0.501,0.501-0.644,1.224-0.432,1.853l-6.382,6.382v2.744   c-0.595,0.295-1.005,0.907-1.005,1.616c0,0.997,0.808,1.805,1.805,1.805c0.997,0,1.805-0.808,1.805-1.805   c0-0.709-0.41-1.321-1.005-1.616V46.56l5.914-5.914c0.188,0.063,0.384,0.095,0.579,0.095c0.461,0,0.922-0.175,1.273-0.527   c0.705-0.705,0.705-1.848,0-2.552C85.386,37.31,84.924,37.133,84.462,37.133L84.462,37.133z"></path><path fill="#111" d="M49.738,54.962c0.389,0,0.705,0.316,0.705,0.705c0,0.268-0.151,0.51-0.394,0.63l-0.311,0.154l-0.311-0.154   c-0.243-0.121-0.394-0.362-0.394-0.63C49.033,55.278,49.35,54.962,49.738,54.962 M49.733,85.557c0.389,0,0.705,0.316,0.705,0.705   c0,0.389-0.316,0.705-0.705,0.705c-0.268,0-0.51-0.151-0.63-0.394l-0.154-0.311l0.154-0.311   C49.223,85.708,49.465,85.557,49.733,85.557 M49.738,53.862c-0.997,0-1.805,0.808-1.805,1.805c0,0.709,0.41,1.321,1.005,1.616   v21.448l-8.331,8.331h7.511c0.295,0.595,0.907,1.005,1.616,1.005c0.997,0,1.805-0.808,1.805-1.805s-0.808-1.805-1.805-1.805   c-0.709,0-1.321,0.41-1.616,1.005h-3.648l6.069-6.069V57.282c0.595-0.295,1.005-0.907,1.005-1.616   C51.543,54.67,50.735,53.862,49.738,53.862L49.738,53.862z"></path><path fill="#111" d="M86.262,45.433c0.188,0,0.365,0.073,0.498,0.206c0.275,0.275,0.275,0.722,0,0.997   c-0.132,0.132-0.308,0.205-0.496,0.205c-0.078,0-0.155-0.013-0.229-0.037l-0.329-0.111l-0.111-0.329   c-0.086-0.257-0.022-0.534,0.167-0.724C85.897,45.507,86.074,45.433,86.262,45.433 M71.405,78.272l0.311,0.154   c0.243,0.121,0.394,0.362,0.394,0.631c0,0.389-0.316,0.705-0.705,0.705S70.7,79.446,70.7,79.057c0-0.268,0.151-0.51,0.394-0.631   L71.405,78.272 M86.262,44.333c-0.462,0-0.924,0.176-1.276,0.529c-0.501,0.501-0.644,1.224-0.432,1.853l-1.416,1.416v6.731h-6.731   l-5.802,5.802v16.778c-0.595,0.295-1.005,0.907-1.005,1.616c0,0.997,0.808,1.805,1.805,1.805c0.997,0,1.805-0.808,1.805-1.805   c0-0.709-0.41-1.321-1.005-1.616V61.327l4.865-4.865h7.669v-7.669l0.947-0.947c0.188,0.063,0.384,0.095,0.579,0.095   c0.461,0,0.922-0.175,1.273-0.527c0.705-0.705,0.705-1.848,0-2.552C87.186,44.51,86.724,44.333,86.262,44.333L86.262,44.333z"></path><path fill="#111" d="M83.933,60.357c0.389,0,0.705,0.316,0.705,0.705c0,0.389-0.316,0.705-0.705,0.705   c-0.268,0-0.51-0.151-0.63-0.394l-0.154-0.311l0.154-0.311C83.423,60.508,83.665,60.357,83.933,60.357 M78.865,71.883   c0.188,0,0.364,0.073,0.496,0.205c0.275,0.275,0.275,0.722,0,0.997c-0.133,0.133-0.31,0.206-0.498,0.206   c-0.188,0-0.365-0.073-0.498-0.206c-0.19-0.19-0.254-0.467-0.167-0.724l0.111-0.329l0.329-0.111   C78.71,71.895,78.787,71.883,78.865,71.883 M83.933,59.257c-0.709,0-1.321,0.41-1.616,1.005h-4.111l-2.469,2.469v7.863l1.416,1.416   c-0.212,0.629-0.069,1.352,0.432,1.853c0.352,0.352,0.814,0.529,1.276,0.529c0.462,0,0.924-0.176,1.276-0.529   c0.705-0.705,0.705-1.848,0-2.552c-0.352-0.352-0.813-0.527-1.273-0.527c-0.196,0-0.392,0.032-0.579,0.095l-0.947-0.947v-6.537   l1.531-1.531h3.448c0.295,0.595,0.907,1.005,1.616,1.005c0.997,0,1.805-0.808,1.805-1.805S84.93,59.257,83.933,59.257   L83.933,59.257z"></path><path fill="#111" d="M64.665,82.483c0.188,0,0.364,0.073,0.496,0.205c0.133,0.133,0.206,0.31,0.206,0.498   s-0.073,0.365-0.206,0.498s-0.31,0.206-0.498,0.206c-0.188,0-0.365-0.073-0.498-0.206c-0.19-0.19-0.254-0.467-0.167-0.724   l0.111-0.329l0.329-0.111C64.51,82.495,64.587,82.483,64.665,82.483 M55.138,85.472l0.311,0.154   c0.243,0.121,0.394,0.362,0.394,0.63c0,0.389-0.316,0.705-0.705,0.705c-0.389,0-0.705-0.316-0.705-0.705   c0-0.268,0.151-0.51,0.394-0.63L55.138,85.472 M54.338,71.731v12.911c-0.595,0.295-1.005,0.907-1.005,1.616   c0,0.997,0.808,1.805,1.805,1.805s1.805-0.808,1.805-1.805c0-0.709-0.41-1.321-1.005-1.616v-9.048l7.016,7.016   c-0.212,0.629-0.069,1.352,0.432,1.853c0.352,0.352,0.814,0.529,1.276,0.529c0.462,0,0.924-0.176,1.276-0.529   c0.705-0.705,0.705-1.848,0-2.552c-0.352-0.352-0.812-0.527-1.273-0.527c-0.196,0-0.392,0.032-0.579,0.095L54.338,71.731   L54.338,71.731z"></path><path fill="#111" d="M44.338,56.762c0.389,0,0.705,0.316,0.705,0.705c0,0.268-0.151,0.51-0.394,0.63l-0.311,0.154l-0.311-0.154   c-0.243-0.121-0.394-0.362-0.394-0.63C43.633,57.078,43.95,56.762,44.338,56.762 M38.412,82.483c0.078,0,0.155,0.013,0.229,0.037   l0.329,0.111l0.111,0.329c0.086,0.257,0.022,0.534-0.167,0.724c-0.133,0.133-0.31,0.206-0.498,0.206   c-0.188,0-0.365-0.073-0.498-0.206s-0.206-0.31-0.206-0.498s0.073-0.365,0.206-0.498C38.048,82.555,38.224,82.483,38.412,82.483    M44.338,55.662c-0.997,0-1.805,0.808-1.805,1.805c0,0.709,0.41,1.321,1.005,1.616v17.848l-4.547,4.547   c-0.188-0.063-0.384-0.095-0.579-0.095c-0.461,0-0.922,0.175-1.273,0.527c-0.705,0.705-0.705,1.848,0,2.552   c0.352,0.352,0.814,0.529,1.276,0.529c0.462,0,0.924-0.176,1.276-0.529c0.501-0.501,0.644-1.224,0.432-1.853l5.016-5.016V59.082   c0.595-0.295,1.005-0.907,1.005-1.616C46.143,56.47,45.335,55.662,44.338,55.662L44.338,55.662z"></path><path fill="#111" d="M20.414,50.833c0.188,0,0.365,0.073,0.498,0.206c0.19,0.19,0.254,0.467,0.167,0.724l-0.111,0.329   l-0.329,0.111c-0.074,0.025-0.15,0.037-0.229,0.037c-0.188,0-0.364-0.073-0.496-0.205c-0.275-0.275-0.275-0.722,0-0.997   C20.049,50.907,20.226,50.833,20.414,50.833 M37.665,68.083c0.188,0,0.364,0.073,0.496,0.205c0.275,0.275,0.275,0.722,0,0.997   c-0.133,0.133-0.31,0.206-0.498,0.206s-0.365-0.073-0.498-0.206c-0.19-0.19-0.254-0.467-0.167-0.724l0.111-0.329l0.329-0.111   C37.51,68.095,37.587,68.083,37.665,68.083 M20.414,49.733c-0.462,0-0.924,0.176-1.276,0.529c-0.705,0.705-0.705,1.848,0,2.552   c0.352,0.352,0.812,0.527,1.273,0.527c0.196,0,0.392-0.032,0.579-0.095l14.963,14.963c-0.212,0.629-0.069,1.352,0.432,1.853   c0.352,0.352,0.814,0.529,1.276,0.529c0.462,0,0.924-0.176,1.276-0.529c0.705-0.705,0.705-1.848,0-2.552   c-0.352-0.352-0.812-0.527-1.273-0.527c-0.196,0-0.392,0.032-0.579,0.095L22.122,52.115c0.212-0.629,0.069-1.352-0.432-1.853   C21.338,49.91,20.876,49.733,20.414,49.733L20.414,49.733z"></path><path fill="#111" d="M33.543,54.957c0.268,0,0.51,0.151,0.63,0.394l0.154,0.311l-0.154,0.311   c-0.121,0.243-0.362,0.394-0.63,0.394c-0.389,0-0.705-0.316-0.705-0.705C32.838,55.273,33.154,54.957,33.543,54.957 M38.938,60.272   l0.311,0.154c0.243,0.121,0.394,0.362,0.394,0.63c0,0.389-0.316,0.705-0.705,0.705c-0.389,0-0.705-0.316-0.705-0.705   c0-0.268,0.151-0.51,0.394-0.63L38.938,60.272 M33.543,53.857c-0.997,0-1.805,0.808-1.805,1.805s0.808,1.805,1.805,1.805   c0.709,0,1.321-0.41,1.616-1.005h2.979v2.979c-0.595,0.295-1.005,0.907-1.005,1.616c0,0.997,0.808,1.805,1.805,1.805   s1.805-0.808,1.805-1.805c0-0.709-0.41-1.321-1.005-1.616v-4.579h-4.579C34.863,54.267,34.252,53.857,33.543,53.857L33.543,53.857z   "></path><path fill="#111" d="M25.814,65.233c0.188,0,0.365,0.073,0.498,0.206c0.19,0.19,0.254,0.467,0.167,0.724l-0.111,0.329   l-0.329,0.111c-0.074,0.025-0.15,0.037-0.229,0.037c-0.188,0-0.364-0.073-0.496-0.205c-0.133-0.133-0.206-0.31-0.206-0.498   c0-0.188,0.073-0.365,0.206-0.498S25.626,65.233,25.814,65.233 M33.012,80.683c0.078,0,0.155,0.013,0.229,0.037l0.329,0.111   l0.111,0.329c0.086,0.257,0.022,0.534-0.167,0.724c-0.133,0.133-0.31,0.206-0.498,0.206s-0.365-0.073-0.498-0.206   s-0.206-0.31-0.206-0.498c0-0.188,0.073-0.365,0.206-0.498C32.648,80.755,32.824,80.683,33.012,80.683 M25.814,64.133   c-0.462,0-0.924,0.176-1.276,0.529c-0.705,0.705-0.705,1.848,0,2.552c0.352,0.352,0.812,0.527,1.273,0.527   c0.196,0,0.392-0.032,0.579-0.095l9.616,9.616l-2.416,2.416c-0.188-0.063-0.384-0.095-0.579-0.095   c-0.461,0-0.922,0.175-1.273,0.527c-0.705,0.705-0.705,1.848,0,2.552c0.352,0.352,0.814,0.529,1.276,0.529   c0.462,0,0.924-0.176,1.276-0.529c0.501-0.501,0.644-1.224,0.432-1.853l3.547-3.547L27.522,66.515   c0.212-0.629,0.069-1.352-0.432-1.853C26.738,64.31,26.276,64.133,25.814,64.133L25.814,64.133z"></path><path fill="#111" d="M18.614,67.033c0.188,0,0.365,0.073,0.498,0.206c0.19,0.19,0.254,0.467,0.167,0.724l-0.111,0.329   l-0.329,0.111c-0.074,0.025-0.15,0.037-0.229,0.037c-0.188,0-0.364-0.073-0.496-0.205c-0.275-0.275-0.275-0.722,0-0.997   C18.249,67.107,18.426,67.033,18.614,67.033 M26.865,75.283c0.188,0,0.364,0.073,0.496,0.205c0.275,0.275,0.275,0.722,0,0.997   c-0.133,0.133-0.31,0.206-0.498,0.206c-0.188,0-0.365-0.073-0.498-0.206c-0.19-0.19-0.254-0.467-0.167-0.724l0.111-0.329   l0.329-0.111C26.71,75.295,26.787,75.283,26.865,75.283 M18.614,65.933c-0.462,0-0.924,0.176-1.276,0.529   c-0.705,0.705-0.705,1.848,0,2.552c0.352,0.352,0.812,0.527,1.273,0.527c0.196,0,0.392-0.032,0.579-0.095l5.963,5.963   c-0.212,0.629-0.069,1.352,0.432,1.853c0.352,0.352,0.814,0.529,1.276,0.529c0.462,0,0.924-0.176,1.276-0.529   c0.705-0.705,0.705-1.848,0-2.552c-0.352-0.352-0.812-0.527-1.273-0.527c-0.196,0-0.392,0.032-0.579,0.095l-5.963-5.963   c0.212-0.629,0.069-1.352-0.432-1.853C19.538,66.11,19.076,65.933,18.614,65.933L18.614,65.933z"></path></g></g><g id="SvgjsG1274" featurekey="MdC7pD-0" transform="matrix(5.042355602403613,0,0,5.042355602403613,-3.5296479599295227,155.82977308399566)" fill="#cccccc"><path d="M0.7 20 l0 -0.78 l1.9 0 l0 -11.66 l-1.9 0 l0 -0.78 l5.84 0 c3.64 0 4.84 1.44 4.84 3.24 c0 1.32 -0.72 2.56 -2.76 3.1 l0 0.04 c2.34 0.42 3.36 1.52 3.36 3.16 c0 2.1 -1.3 3.68 -5.22 3.68 l-6.06 0 z M5.04 12.780000000000001 l1.38 0 c1.62 0 2.44 -0.58 2.44 -2.56 c0 -1.92 -0.8 -2.6 -2.46 -2.6 l-1.36 0 l0 5.16 z M5.04 19.16 l1.58 0 c2 0 2.82 -0.8 2.82 -2.78 c0 -2 -0.86 -2.72 -2.86 -2.72 l-1.54 0 l0 5.5 z M13.399999999999999 20 l0 -0.78 l1.54 0 l0 -7.48 l-1.72 0 l0 -0.78 l3.8 0 l0 2.18 l0.04 0 c0.36 -1.06 1.22 -2.46 2.86 -2.46 c1.06 0 2 0.56 2 1.6 c0 0.9 -0.72 1.58 -2.02 1.54 c0.04 -0.38 0.04 -0.72 0.04 -1.06 c0 -0.62 -0.12 -1.04 -0.56 -1.04 c-1.14 0 -2.22 2.52 -2.22 4.48 l0 3.02 l1.72 0 l0 0.78 l-5.48 0 z M22.6 17.9 c0 -2.24 2.86 -3.02 5.44 -3.02 l0 -1.78 c0 -1.2 -0.32 -1.72 -1.5 -1.72 c-1.2 0 -1.62 0.54 -1.62 1.66 c0 0.32 0.02 0.6 0.06 0.92 c-1.4 0.06 -2 -0.58 -2 -1.38 c0 -1.16 1.34 -1.9 3.7 -1.9 c2.54 0 3.6 0.8 3.6 2.86 l0 4.92 c0 0.48 0.14 0.72 0.4 0.72 c0.54 0 0.78 -0.88 0.86 -1.18 l0.78 0.24 c-0.16 0.74 -0.76 1.96 -2.18 1.96 c-0.94 0 -1.64 -0.46 -1.82 -1.44 l-0.04 0 c-0.52 0.74 -1.38 1.52 -2.82 1.52 s-2.86 -0.78 -2.86 -2.38 z M24.92 17.9 c0 0.92 0.38 1.42 1.06 1.42 c0.98 0 2.06 -1.1 2.06 -2.14 l0 -1.46 c-2.12 0 -3.12 0.66 -3.12 2.18 z M32.7 20 l0 -0.78 l1.54 0 l0 -7.48 l-1.72 0 l0 -0.78 l3.94 0 l0 8.26 l1.54 0 l0 0.78 l-5.3 0 z M33.88 7.720000000000001 c0 -0.74 0.6 -1.34 1.36 -1.34 c0.74 0 1.34 0.6 1.34 1.34 s-0.6 1.34 -1.34 1.34 c-0.76 0 -1.36 -0.6 -1.36 -1.34 z M38.900000000000006 20 l0 -0.78 l1.54 0 l0 -7.48 l-1.72 0 l0 -0.78 l3.8 0 l0 2.24 l0.04 0 c0.18 -0.54 0.86 -2.52 3.3 -2.52 c1.84 0 2.9 0.88 2.9 2.84 l0 5.7 l1.52 0 l0 0.78 l-5.06 0 l0 -0.78 l1.32 0 l0 -5.72 c0 -1.32 -0.34 -1.8 -1.22 -1.8 c-1.9 0 -2.66 3 -2.66 4.7 l0 2.82 l1.3 0 l0 0.78 l-5.06 0 z"></path></g><g id="SvgjsG1275" featurekey="Pp8M4q-0" transform="matrix(0.9949960214430631,0,0,0.9949960214430631,23.46472127460636,263.3359699085668)" fill="#cccccc"></g></svg>